<svg width="45" height="38" viewBox="0 0 45 38" fill="none" xmlns="http://www.w3.org/2000/svg">
<path d="M44.4612 15.0674L44.4601 15.0837V15.1001C44.4601 18.1262 43.2506 21.039 41.3577 23.7258C39.4651 26.4121 36.9082 28.8447 34.2653 30.8979C31.6242 32.9497 28.9122 34.6109 26.7244 35.7576C25.6303 36.331 24.6726 36.773 23.9248 37.0701C23.5506 37.2188 23.2344 37.329 22.9835 37.4013C22.7211 37.4769 22.5664 37.5 22.4995 37.5C22.4325 37.5 22.2779 37.4769 22.0155 37.4013C21.7646 37.329 21.4484 37.2188 21.0741 37.0701C20.3264 36.773 19.3686 36.331 18.2746 35.7576C16.0867 34.6109 13.3748 32.9497 10.7336 30.8979C8.09071 28.8447 5.53381 26.4121 3.64123 23.7258C1.74832 21.039 0.538864 18.1261 0.538864 15.1001V15.0837L0.537794 15.0674C0.083203 8.13113 3.78685 3.05633 8.40612 1.23753C10.7169 0.327683 13.2605 0.228997 15.6529 1.11323C18.0431 1.99669 20.3172 3.87452 22.0637 6.97798L22.4864 7.72894L22.9286 6.98936C26.6323 0.795462 32.2299 -0.567608 36.7594 1.23683C41.3173 3.05254 44.9163 8.12328 44.4612 15.0674Z" fill="#FF5151" stroke="#FF5151"/>
</svg>

